<?xml version="1.0" encoding="UTF-8" standalone="no"?>
<!DOCTYPE svg PUBLIC "-//W3C//DTD SVG 1.1//EN"
 "http://www.w3.org/Graphics/SVG/1.1/DTD/svg11.dtd">
<!-- Generated by graphviz version 14.1.2 (0)
 -->
<!-- Title: sub_140001020 Pages: 1 -->
<svg width="322pt" height="347pt"
 viewBox="0.00 0.00 322.00 347.00" xmlns="http://www.w3.org/2000/svg" xmlns:xlink="http://www.w3.org/1999/xlink">
<g id="graph0" class="graph" transform="scale(1 1) rotate(0) translate(4 343.2)">
<title>sub_140001020</title>
<polygon fill="white" stroke="none" points="-4,4 -4,-343.2 318,-343.2 318,4 -4,4"/>
<text xml:space="preserve" text-anchor="middle" x="157" y="-321.9" font-family="Times,serif" font-size="14.00">sub_140001020 &#160;(entry 0x140001020, 3 blocks, CC 4)</text>
<!-- b140001020 -->
<g id="node1" class="node">
<title>b140001020</title>
<polygon fill="none" stroke="black" points="310,-310.7 132,-310.7 132,-264.45 310,-264.45 310,-310.7"/>
<polygon fill="none" stroke="black" points="314,-314.7 128,-314.7 128,-260.45 314,-260.45 314,-314.7"/>
<text xml:space="preserve" text-anchor="start" x="140" y="-297.2" font-family="monospace" font-size="10.00">0x140001020: endbr64</text>
<text xml:space="preserve" text-anchor="start" x="140" y="-284.45" font-family="monospace" font-size="10.00">0x140001024: test ecx, ecx</text>
<text xml:space="preserve" text-anchor="start" x="140" y="-271.7" font-family="monospace" font-size="10.00">0x140001026: je 0x140001030</text>
</g>
<!-- b140001028 -->
<g id="node2" class="node">
<title>b140001028</title>
<polygon fill="none" stroke="black" points="184,-223.45 0,-223.45 0,-177.2 184,-177.2 184,-223.45"/>
<text xml:space="preserve" text-anchor="start" x="8" y="-209.95" font-family="monospace" font-size="10.00">0x140001028: sub ecx, 0x1</text>
<text xml:space="preserve" text-anchor="start" x="8" y="-197.2" font-family="monospace" font-size="10.00">0x14000102b: cmp ecx, 0x0</text>
<text xml:space="preserve" text-anchor="start" x="8" y="-184.45" font-family="monospace" font-size="10.00">0x14000102e: jne 0x140001028</text>
</g>
<!-- b140001020&#45;&gt;b140001028 -->
<g id="edge1" class="edge">
<title>b140001020&#45;&gt;b140001028</title>
<path fill="none" stroke="#666666" d="M180.89,-260.07C166.45,-250.53 150.1,-239.72 135.39,-230"/>
<polygon fill="#666666" stroke="#666666" points="137.54,-227.22 127.26,-224.63 133.68,-233.06 137.54,-227.22"/>
</g>
<!-- b140001030 -->
<g id="node3" class="node">
<title>b140001030</title>
<polygon fill="none" stroke="black" points="234,-140.2 122,-140.2 122,-104.2 234,-104.2 234,-140.2"/>
<text xml:space="preserve" text-anchor="start" x="130" y="-119.07" font-family="monospace" font-size="10.00">0x140001030: ret</text>
</g>
<!-- b140001020&#45;&gt;b140001030 -->
<g id="edge2" class="edge">
<title>b140001020&#45;&gt;b140001030</title>
<path fill="none" stroke="darkgreen" d="M232.6,-260.3C240.91,-237.45 248.76,-203.9 237,-177.2 232.04,-165.93 223.44,-155.99 214.31,-147.81"/>
<polygon fill="darkgreen" stroke="darkgreen" points="216.6,-145.17 206.67,-141.49 212.14,-150.56 216.6,-145.17"/>
<text xml:space="preserve" text-anchor="middle" x="256.09" y="-197.4" font-family="monospace" font-size="9.00">taken</text>
</g>
<!-- b140001028&#45;&gt;b140001028 -->
<g id="edge4" class="edge">
<title>b140001028&#45;&gt;b140001028</title>
<path fill="none" stroke="darkgreen" d="M184.28,-206.99C195.02,-205.76 202,-203.54 202,-200.32 202,-198.42 199.54,-196.86 195.29,-195.65"/>
<polygon fill="darkgreen" stroke="darkgreen" points="196.23,-192.27 185.77,-193.93 194.99,-199.15 196.23,-192.27"/>
<text xml:space="preserve" text-anchor="middle" x="215.12" y="-197.4" font-family="monospace" font-size="9.00">taken</text>
</g>
<!-- b140001028&#45;&gt;b140001030 -->
<g id="edge3" class="edge">
<title>b140001028&#45;&gt;b140001030</title>
<path fill="none" stroke="#666666" d="M117.34,-176.9C127.56,-167.85 139.39,-157.38 149.87,-148.1"/>
<polygon fill="#666666" stroke="#666666" points="152,-150.89 157.16,-141.64 147.36,-145.65 152,-150.89"/>
</g>
<!-- exit_140001020 -->
<g id="node4" class="node">
<title>exit_140001020</title>
<ellipse fill="none" stroke="black" cx="178" cy="-28.47" rx="24.47" ry="24.47"/>
<ellipse fill="none" stroke="black" cx="178" cy="-28.47" rx="28.47" ry="28.47"/>
<text xml:space="preserve" text-anchor="middle" x="178" y="-25.35" font-family="monospace" font-size="10.00">exit</text>
</g>
<!-- b140001030&#45;&gt;exit_140001020 -->
<g id="edge5" class="edge">
<title>b140001030&#45;&gt;exit_140001020</title>
<path fill="none" stroke="red" stroke-dasharray="1,5" d="M178,-103.95C178,-93.96 178,-80.95 178,-68.61"/>
<polygon fill="red" stroke="red" points="181.5,-68.62 178,-58.62 174.5,-68.62 181.5,-68.62"/>
<text xml:space="preserve" text-anchor="middle" x="185.88" y="-77.65" font-family="monospace" font-size="9.00">ret</text>
</g>
</g>
</svg>
